<svg width="48" height="48" viewBox="0 0 48 48" fill="none" xmlns="http://www.w3.org/2000/svg">
<path d="M12.3333 0.666687H35.6667V6.49127H41.5V0.666687C43.0471 0.666687 44.5308 1.28127 45.6248 2.37523C46.7187 3.46919 47.3333 4.95292 47.3333 6.50002V41.5C47.3333 43.0471 46.7187 44.5308 45.6248 45.6248C44.5308 46.7188 43.0471 47.3333 41.5 47.3333V41.4913H35.6667V47.3333H12.3333V41.4913H6.49999V47.3333C4.95289 47.3333 3.46916 46.7188 2.3752 45.6248C1.28124 44.5308 0.666656 43.0471 0.666656 41.5V6.50002C0.666656 4.95292 1.28124 3.46919 2.3752 2.37523C3.46916 1.28127 4.95289 0.666687 6.49999 0.666687V6.49127H12.3333V0.666687ZM18.1667 32.75L31.2917 24L18.1667 15.25V32.75ZM41.5 35.6579V26.9079H35.6667V35.6579H41.5ZM41.5 21.0746V12.3246H35.6667V21.0746H41.5ZM12.3333 35.6579V26.9079H6.49999V35.6579H12.3333ZM12.3333 21.0746V12.3246H6.49999V21.0746H12.3333Z" fill="white"/>
</svg>
